<svg version="1" xmlns="http://www.w3.org/2000/svg" width="248" height="248" viewBox="0 0 186.000000 186.000000"><path d="M70.7 13C38.1 17.1 11.8 39.3 2.9 70.2 0 80.6-.8 98.1 1.4 108.7c6.1 30.4 29 54.5 59.2 62.4 10.3 2.7 34.8 3.7 49.3 2 19.8-2.3 36.4-9.9 50.4-23 16.9-16 25.7-35.3 25.7-56.6 0-37.5-25.5-69.2-63.3-78.6-9.4-2.3-40-3.4-52-1.9zm30.8 10c26 8.1 44.5 27.8 50.6 53.8 8.9 38.2-15 77-53.6 86.8-10.3 2.6-25.8 2.4-36-.5-20.7-5.8-37.4-19.7-46.5-38.6-5.2-10.9-7.1-19.6-7.1-31.8C9 57.9 32.4 29.2 67 21.5c9-2 25.3-1.3 34.5 1.5z"/><path d="M59 51.6c-14.2 8.1-22.6 20.8-24.4 37-.9 7.7 1.3 18.6 5.5 26.4 3.8 7.1 12.6 15.8 19.7 19.4L65 137V93c0-24.2-.3-44-.7-44-.5 0-2.8 1.2-5.3 2.6zM97 92.3c0 23.8.3 43.6.6 44 1.1 1.1 9.8-3.9 15.1-8.7 15.8-14.2 20-37.6 10.1-57-3.9-7.7-16.5-19-23.5-21.1l-2.3-.6v43.4z"/></svg>