<?xml version="1.0" encoding="UTF-8"?>
<svg width="151px" height="40px" viewBox="0 0 151 40" version="1.1" xmlns="http://www.w3.org/2000/svg" xmlns:xlink="http://www.w3.org/1999/xlink">
    <!-- Generator: Sketch 42 (36781) - http://www.bohemiancoding.com/sketch -->
    <title>DCI_updated_logos_white</title>
    <desc>Created with Sketch.</desc>
    <defs>
        <polygon id="path-1" points="0 40 150.165 40 150.165 0.04 0 0.04"></polygon>
    </defs>
    <g id="Page-1" stroke="none" stroke-width="1" fill="none" fill-rule="evenodd">
        <g id="DCI_updated_logos_white">
            <path d="M54.749,18.473 C54.749,20.094 55.907,20.281 56.937,20.281 C61.482,20.281 62.974,16.854 62.974,13.719 C62.974,9.786 60.45,6.947 56.39,6.947 C55.527,6.947 55.129,7.007 54.749,7.031 L54.749,18.473 Z M52.687,8.606 C52.687,6.714 51.699,6.839 50.753,6.818 L50.753,6.274 C51.573,6.312 52.414,6.312 53.235,6.312 C54.119,6.312 55.317,6.274 56.875,6.274 C62.322,6.274 65.288,9.909 65.288,13.636 C65.288,15.719 64.069,20.956 56.623,20.956 C55.552,20.956 54.56,20.915 53.573,20.915 C52.625,20.915 51.699,20.937 50.753,20.956 L50.753,20.408 C52.013,20.281 52.625,20.24 52.687,18.81 L52.687,8.606 L52.687,8.606 Z" id="Fill-1" fill="#FFFFFF"></path>
            <path d="M68.278,8.103 C67.729,8.103 67.246,7.598 67.246,7.052 C67.246,6.525 67.751,6.039 68.278,6.039 C68.824,6.039 69.31,6.482 69.31,7.052 C69.31,7.619 68.845,8.103 68.278,8.103 Z M66.026,20.408 L66.425,20.408 C67.015,20.408 67.435,20.408 67.435,19.712 L67.435,14.014 C67.435,13.087 67.12,12.96 66.34,12.543 L66.34,12.205 C67.33,11.909 68.508,11.513 68.592,11.447 C68.741,11.365 68.865,11.343 68.972,11.343 C69.075,11.343 69.118,11.468 69.118,11.636 L69.118,19.712 C69.118,20.408 69.582,20.408 70.169,20.408 L70.527,20.408 L70.527,20.956 C69.812,20.956 69.075,20.915 68.319,20.915 C67.562,20.915 66.805,20.937 66.026,20.956 L66.026,20.408 L66.026,20.408 Z" id="Fill-2" fill="#FFFFFF"></path>
            <path d="M72.526,14.138 C72.526,13.362 72.295,13.152 71.307,12.754 L71.307,12.352 C72.21,12.057 73.072,11.782 74.082,11.343 C74.146,11.343 74.207,11.384 74.207,11.55 L74.207,12.921 C75.409,12.057 76.44,11.343 77.85,11.343 C79.638,11.343 80.268,12.646 80.268,14.287 L80.268,19.712 C80.268,20.408 80.733,20.408 81.32,20.408 L81.699,20.408 L81.699,20.956 C80.96,20.956 80.225,20.915 79.47,20.915 C78.711,20.915 77.955,20.937 77.197,20.956 L77.197,20.408 L77.577,20.408 C78.165,20.408 78.583,20.408 78.583,19.712 L78.583,14.267 C78.583,13.066 77.85,12.478 76.65,12.478 C75.976,12.478 74.905,13.025 74.207,13.489 L74.207,19.712 C74.207,20.408 74.674,20.408 75.263,20.408 L75.642,20.408 L75.642,20.956 C74.905,20.956 74.166,20.915 73.408,20.915 C72.653,20.915 71.894,20.937 71.137,20.956 L71.137,20.408 L71.519,20.408 C72.106,20.408 72.526,20.408 72.526,19.712 L72.526,14.138" id="Fill-3" fill="#FFFFFF"></path>
            <path d="M87.024,14.476 C87.547,14.476 87.609,14.203 87.609,13.951 C87.609,12.877 86.957,12.014 85.779,12.014 C84.497,12.014 83.614,12.96 83.361,14.476 L87.024,14.476 Z M83.299,15.151 C83.254,15.34 83.254,15.654 83.299,16.37 C83.422,18.369 84.708,20.01 86.389,20.01 C87.547,20.01 88.454,19.378 89.231,18.6 L89.525,18.894 C88.557,20.178 87.359,21.271 85.634,21.271 C82.288,21.271 81.617,18.032 81.617,16.686 C81.617,12.562 84.392,11.343 85.863,11.343 C87.568,11.343 89.401,12.414 89.419,14.644 C89.419,14.773 89.419,14.897 89.401,15.024 L89.208,15.151 L83.299,15.151 L83.299,15.151 Z" id="Fill-4" fill="#FFFFFF"></path>
            <path d="M89.903,20.408 L90.473,20.408 C91.061,20.408 91.479,20.408 91.479,19.712 L91.479,13.803 C91.479,13.152 90.703,13.025 90.386,12.855 L90.386,12.543 C91.921,11.889 92.765,11.343 92.955,11.343 C93.079,11.343 93.143,11.404 93.143,11.617 L93.143,13.509 L93.188,13.509 C93.711,12.689 94.596,11.343 95.878,11.343 C96.405,11.343 97.077,11.698 97.077,12.457 C97.077,13.025 96.679,13.532 96.088,13.532 C95.435,13.532 95.435,13.025 94.7,13.025 C94.342,13.025 93.164,13.509 93.164,14.773 L93.164,19.712 C93.164,20.408 93.583,20.408 94.173,20.408 L95.351,20.408 L95.351,20.956 C94.194,20.937 93.313,20.915 92.408,20.915 C91.544,20.915 90.662,20.937 89.903,20.956 L89.903,20.408" id="Fill-5" fill="#FFFFFF"></path>
            <path d="M98.001,18.032 C98.277,19.419 99.118,20.599 100.654,20.599 C101.894,20.599 102.354,19.841 102.354,19.105 C102.354,16.624 97.772,17.42 97.772,14.035 C97.772,12.855 98.72,11.343 101.034,11.343 C101.705,11.343 102.61,11.533 103.43,11.952 L103.578,14.097 L103.094,14.097 C102.884,12.773 102.147,12.014 100.8,12.014 C99.958,12.014 99.161,12.5 99.161,13.403 C99.161,15.867 104.04,15.108 104.04,18.41 C104.04,19.798 102.925,21.271 100.423,21.271 C99.578,21.271 98.591,20.978 97.855,20.558 L97.623,18.137 L98.001,18.032" id="Fill-6" fill="#FFFFFF"></path>
            <path d="M123.036,10.079 L122.509,10.079 C122.111,7.619 120.364,6.631 118.01,6.631 C115.588,6.631 112.075,8.249 112.075,13.296 C112.075,17.549 115.109,20.599 118.345,20.599 C120.427,20.599 122.154,19.169 122.575,16.959 L123.057,17.084 L122.575,20.156 C121.691,20.705 119.311,21.271 117.922,21.271 C113,21.271 109.89,18.094 109.89,13.362 C109.89,9.049 113.737,5.955 117.862,5.955 C119.567,5.955 121.205,6.504 122.826,7.071 L123.036,10.079" id="Fill-7" fill="#FFFFFF"></path>
            <path d="M123.792,20.408 L124.194,20.408 C124.783,20.408 125.205,20.408 125.205,19.712 L125.205,8 C125.205,6.631 124.888,6.588 124.088,6.357 L124.088,6.02 C124.929,5.747 125.813,5.37 126.255,5.115 C126.486,4.99 126.656,4.883 126.718,4.883 C126.846,4.883 126.886,5.01 126.886,5.179 L126.886,19.712 C126.886,20.408 127.35,20.408 127.939,20.408 L128.296,20.408 L128.296,20.956 C127.584,20.956 126.846,20.915 126.086,20.915 C125.331,20.915 124.575,20.937 123.792,20.956 L123.792,20.408" id="Fill-8" fill="#FFFFFF"></path>
            <path d="M137.301,19.798 C137.301,20.178 137.531,20.198 137.889,20.198 C138.141,20.198 138.459,20.178 138.732,20.178 L138.732,20.621 C137.826,20.705 136.102,21.145 135.699,21.271 L135.595,21.209 L135.595,19.507 C134.335,20.537 133.364,21.271 131.87,21.271 C130.735,21.271 129.558,20.537 129.558,18.771 L129.558,13.384 C129.558,12.836 129.473,12.309 128.298,12.205 L128.298,11.805 C129.057,11.782 130.735,11.659 131.01,11.659 C131.244,11.659 131.244,11.805 131.244,12.268 L131.244,17.695 C131.244,18.325 131.244,20.135 133.074,20.135 C133.787,20.135 134.734,19.587 135.616,18.855 L135.616,13.193 C135.616,12.773 134.607,12.543 133.852,12.33 L133.852,11.952 C135.744,11.825 136.924,11.659 137.132,11.659 C137.301,11.659 137.301,11.805 137.301,12.038 L137.301,19.798" id="Fill-9" fill="#FFFFFF"></path>
            <path d="M141.486,18.578 C141.486,19.378 142.243,20.724 143.655,20.724 C145.907,20.724 146.853,18.514 146.853,16.641 C146.853,14.371 145.126,12.478 143.487,12.478 C142.705,12.478 142.054,12.984 141.486,13.469 L141.486,18.578 Z M141.486,12.855 C142.328,12.143 143.465,11.343 144.622,11.343 C147.062,11.343 148.535,13.469 148.535,15.76 C148.535,18.514 146.515,21.271 143.503,21.271 C141.948,21.271 141.129,20.767 140.581,20.537 L139.951,21.019 L139.51,20.788 C139.696,19.548 139.802,18.325 139.802,17.043 L139.802,8 C139.802,6.631 139.488,6.588 138.688,6.357 L138.688,6.02 C139.532,5.747 140.413,5.37 140.856,5.115 C141.084,4.99 141.254,4.883 141.32,4.883 C141.446,4.883 141.486,5.01 141.486,5.179 L141.486,12.855 L141.486,12.855 Z" id="Fill-10" fill="#FFFFFF"></path>
            <path d="M50.73,33.186 L50.89,33.186 C51.301,33.186 51.738,33.132 51.738,32.535 L51.738,26.538 C51.738,25.941 51.301,25.887 50.89,25.887 L50.73,25.887 L50.73,25.54 C51.177,25.54 51.863,25.587 52.425,25.587 C52.997,25.587 53.683,25.54 54.221,25.54 L54.221,25.887 L54.061,25.887 C53.65,25.887 53.213,25.941 53.213,26.538 L53.213,32.535 C53.213,33.132 53.65,33.186 54.061,33.186 L54.221,33.186 L54.221,33.531 C53.672,33.531 52.984,33.486 52.413,33.486 C51.851,33.486 51.177,33.531 50.73,33.531 L50.73,33.186" id="Fill-11" fill="#FFFFFF"></path>
            <path d="M54.171,33.482 L54.173,33.239 L54.062,33.239 C53.653,33.239 53.165,33.167 53.163,32.535 L53.163,26.538 C53.165,25.906 53.653,25.836 54.062,25.836 L54.171,25.836 L54.171,25.592 C53.643,25.592 52.98,25.636 52.425,25.636 C51.882,25.636 51.224,25.594 50.78,25.592 L50.78,25.836 L50.89,25.836 C51.298,25.836 51.786,25.906 51.786,26.538 L51.786,32.535 C51.786,33.167 51.298,33.239 50.89,33.239 L50.78,33.239 L50.78,33.482 C51.224,33.476 51.87,33.435 52.413,33.435 C52.97,33.435 53.633,33.478 54.171,33.482 Z M54.221,33.58 C53.668,33.58 52.982,33.535 52.413,33.535 C51.852,33.535 51.179,33.58 50.73,33.58 L50.679,33.58 L50.679,33.139 L50.89,33.139 C51.305,33.13 51.684,33.095 51.687,32.535 L51.687,26.538 C51.684,25.978 51.305,25.941 50.89,25.933 L50.679,25.933 L50.679,25.493 L50.73,25.493 C51.179,25.493 51.865,25.538 52.425,25.538 C52.995,25.538 53.68,25.493 54.221,25.493 L54.271,25.493 L54.271,25.933 L54.062,25.933 C53.646,25.941 53.266,25.978 53.264,26.538 L53.264,32.535 C53.266,33.095 53.646,33.13 54.062,33.139 L54.271,33.139 L54.271,33.58 L54.221,33.58 L54.221,33.58 Z" id="Fill-12" fill="#FFFFFF"></path>
            <path d="M62.085,31.276 L62.108,31.253 L62.108,26.962 C62.108,26.023 61.456,25.887 61.111,25.887 L60.86,25.887 L60.86,25.54 C61.397,25.54 61.926,25.587 62.463,25.587 C62.931,25.587 63.403,25.54 63.869,25.54 L63.869,25.887 L63.7,25.887 C63.218,25.887 62.679,25.976 62.679,27.338 L62.679,32.549 C62.679,32.948 62.692,33.348 62.748,33.703 L62.312,33.703 L56.419,27.134 L56.419,31.847 C56.419,32.846 56.611,33.186 57.493,33.186 L57.687,33.186 L57.687,33.531 C57.196,33.531 56.703,33.486 56.21,33.486 C55.699,33.486 55.17,33.531 54.656,33.531 L54.656,33.186 L54.816,33.186 C55.606,33.186 55.847,32.651 55.847,31.735 L55.847,26.915 C55.847,26.273 55.317,25.887 54.805,25.887 L54.656,25.887 L54.656,25.54 C55.089,25.54 55.536,25.587 55.971,25.587 C56.314,25.587 56.648,25.54 56.99,25.54 L62.085,31.276" id="Fill-13" fill="#FFFFFF"></path>
            <path d="M62.058,31.253 L62.058,31.249 L62.049,31.241 L62.058,31.253 Z M62.085,31.276 L62.122,31.243 L62.085,31.276 Z M62.312,33.652 L62.692,33.652 C62.64,33.309 62.632,32.927 62.632,32.549 L62.632,27.338 C62.632,25.965 63.206,25.836 63.7,25.836 L63.821,25.836 L63.821,25.592 C63.368,25.594 62.917,25.636 62.463,25.636 C61.938,25.636 61.429,25.594 60.91,25.592 L60.91,25.836 L61.111,25.836 C61.463,25.836 62.157,25.992 62.157,26.962 L62.143,31.288 L62.118,31.309 L62.08,31.346 L56.99,25.592 C56.65,25.592 56.318,25.636 55.971,25.636 C55.552,25.636 55.12,25.594 54.706,25.592 L54.704,25.836 L54.805,25.836 C55.342,25.836 55.895,26.246 55.895,26.915 L55.895,31.735 C55.895,32.651 55.64,33.235 54.816,33.239 L54.706,33.235 L54.706,33.482 C55.201,33.476 55.71,33.435 56.21,33.435 C56.69,33.435 57.166,33.476 57.638,33.482 L57.638,33.239 L57.493,33.239 C56.592,33.235 56.369,32.845 56.369,31.847 L56.369,27.005 L62.312,33.652 Z M62.748,33.754 L62.276,33.736 L56.466,27.262 L56.466,31.847 C56.481,32.845 56.632,33.128 57.493,33.139 L57.739,33.139 L57.739,33.58 L57.687,33.58 C57.193,33.58 56.7,33.535 56.21,33.535 C55.7,33.535 55.174,33.58 54.654,33.58 L54.604,33.58 L54.604,33.139 L54.816,33.139 C55.573,33.134 55.789,32.647 55.798,31.735 L55.798,26.915 C55.796,26.306 55.296,25.935 54.805,25.933 L54.604,25.933 L54.604,25.493 L54.654,25.493 C55.092,25.493 55.539,25.538 55.971,25.538 C56.311,25.538 56.642,25.493 57.029,25.511 L62.058,31.171 L62.058,26.962 C62.052,26.051 61.446,25.941 61.111,25.933 L60.808,25.933 L60.808,25.493 L60.86,25.493 C61.399,25.493 61.928,25.538 62.463,25.538 C62.927,25.538 63.397,25.493 63.869,25.493 L63.921,25.493 L63.921,25.933 L63.7,25.933 C63.226,25.947 62.742,25.99 62.729,27.338 L62.729,32.549 C62.729,32.946 62.741,33.346 62.796,33.695 L62.806,33.754 L62.748,33.754 L62.748,33.754 Z" id="Fill-14" fill="#FFFFFF"></path>
            <path d="M65.583,26.113 C64.724,26.113 64.693,26.32 64.52,27.154 L64.177,27.154 C64.224,26.835 64.28,26.514 64.316,26.181 C64.36,25.861 64.383,25.54 64.383,25.21 L64.659,25.21 C64.751,25.553 65.037,25.54 65.347,25.54 L71.252,25.54 C71.561,25.54 71.847,25.53 71.87,25.186 L72.143,25.233 C72.101,25.54 72.054,25.849 72.019,26.16 C71.995,26.468 71.995,26.778 71.995,27.087 L71.653,27.215 C71.631,26.79 71.572,26.113 70.806,26.113 L68.929,26.113 L68.929,32.203 C68.929,33.087 69.331,33.186 69.879,33.186 L70.096,33.186 L70.096,33.531 C69.65,33.531 68.847,33.486 68.23,33.486 C67.544,33.486 66.741,33.531 66.294,33.531 L66.294,33.186 L66.512,33.186 C67.144,33.186 67.461,33.132 67.461,32.228 L67.461,26.113 L65.583,26.113" id="Fill-15" fill="#FFFFFF"></path>
            <path d="M70.098,33.58 C69.646,33.58 68.845,33.535 68.23,33.535 C67.544,33.535 66.745,33.58 66.294,33.58 L66.246,33.58 L66.246,33.139 L66.512,33.139 C67.144,33.124 67.398,33.116 67.411,32.228 L67.411,26.162 L65.583,26.162 L65.583,26.064 L67.512,26.064 L67.512,32.228 C67.512,33.145 67.142,33.239 66.512,33.239 L66.344,33.239 L66.344,33.48 C66.797,33.476 67.565,33.435 68.23,33.435 C68.828,33.435 69.592,33.476 70.045,33.48 L70.045,33.239 L69.879,33.239 C69.325,33.239 68.877,33.104 68.877,32.203 L68.877,26.064 L70.806,26.064 C71.574,26.066 71.675,26.718 71.699,27.143 L71.949,27.052 C71.949,26.755 71.951,26.454 71.969,26.152 C72.001,25.859 72.044,25.566 72.087,25.274 L71.913,25.245 C71.857,25.576 71.537,25.596 71.25,25.592 L65.347,25.592 L65.287,25.592 C65.017,25.592 64.724,25.579 64.622,25.261 L64.432,25.261 C64.432,25.576 64.408,25.883 64.364,26.189 C64.331,26.503 64.28,26.805 64.237,27.106 L64.481,27.106 C64.634,26.31 64.73,26.051 65.583,26.064 L65.583,26.162 C64.738,26.179 64.757,26.32 64.568,27.166 L64.562,27.205 L64.12,27.205 L64.127,27.147 C64.171,26.827 64.231,26.507 64.266,26.174 C64.312,25.855 64.335,25.538 64.335,25.21 L64.335,25.159 L64.697,25.159 L64.705,25.196 C64.784,25.485 64.994,25.487 65.287,25.493 L65.347,25.493 L71.25,25.493 C71.568,25.487 71.801,25.481 71.821,25.182 L71.825,25.13 L71.876,25.139 L72.198,25.19 L72.192,25.239 C72.147,25.548 72.103,25.855 72.07,26.162 C72.046,26.468 72.046,26.778 72.046,27.087 L72.046,27.122 L72.013,27.135 L71.607,27.283 L71.605,27.215 C71.574,26.786 71.528,26.162 70.806,26.162 L68.978,26.162 L68.978,32.203 C68.989,33.067 69.333,33.128 69.879,33.139 L70.145,33.139 L70.145,33.58 L70.098,33.58" id="Fill-16" fill="#FFFFFF"></path>
            <path d="M72.51,33.186 L72.67,33.186 C73.082,33.186 73.516,33.132 73.516,32.535 L73.516,26.538 C73.516,25.941 73.082,25.887 72.67,25.887 L72.51,25.887 L72.51,25.54 C73.206,25.54 74.401,25.587 75.359,25.587 C76.322,25.587 77.511,25.54 78.287,25.54 C78.269,26.033 78.28,26.79 78.314,27.293 L77.968,27.385 C77.914,26.641 77.775,26.047 76.574,26.047 L74.986,26.047 L74.986,29.043 L76.344,29.043 C77.032,29.043 77.182,28.657 77.248,28.038 L77.59,28.038 C77.568,28.485 77.557,28.929 77.557,29.377 C77.557,29.813 77.568,30.247 77.59,30.681 L77.248,30.75 C77.182,30.063 77.147,29.616 76.355,29.616 L74.986,29.616 L74.986,32.283 C74.986,33.028 75.647,33.028 76.378,33.028 C77.754,33.028 78.359,32.936 78.702,31.632 L79.022,31.712 C78.873,32.32 78.736,32.923 78.633,33.531 C77.902,33.531 76.584,33.486 75.554,33.486 C74.523,33.486 73.162,33.531 72.51,33.531 L72.51,33.186" id="Fill-17" fill="#FFFFFF"></path>
            <path d="M78.591,33.48 C78.69,32.903 78.821,32.324 78.963,31.749 L78.736,31.692 C78.394,32.973 77.73,33.087 76.378,33.077 C75.656,33.077 74.935,33.077 74.931,32.283 L74.931,29.567 L76.355,29.567 C77.155,29.557 77.235,30.042 77.291,30.693 L77.539,30.642 C77.519,30.221 77.507,29.796 77.507,29.377 C77.507,28.947 77.519,28.518 77.539,28.085 L77.291,28.085 C77.228,28.683 77.043,29.101 76.344,29.094 L74.931,29.094 L74.931,25.994 L76.574,25.994 C77.764,25.988 77.963,26.602 78.011,27.32 L78.259,27.254 C78.24,26.93 78.228,26.518 78.228,26.137 C78.228,25.937 78.232,25.754 78.238,25.592 C77.459,25.594 76.3,25.636 75.359,25.636 C74.419,25.636 73.26,25.594 72.559,25.592 L72.559,25.836 L72.67,25.836 C73.078,25.836 73.566,25.906 73.568,26.538 L73.568,32.535 C73.566,33.167 73.078,33.235 72.67,33.239 L72.559,33.239 L72.559,33.48 C73.225,33.478 74.549,33.435 75.554,33.435 C76.564,33.435 77.852,33.478 78.591,33.48 Z M78.633,33.58 C77.898,33.58 76.582,33.533 75.554,33.533 C74.523,33.533 73.164,33.58 72.51,33.58 L72.46,33.58 L72.46,33.139 L72.67,33.139 C73.084,33.132 73.462,33.095 73.466,32.535 L73.466,26.538 C73.462,25.98 73.084,25.943 72.67,25.933 L72.46,25.933 L72.46,25.493 L72.51,25.493 C73.208,25.493 74.401,25.538 75.359,25.538 C76.32,25.538 77.509,25.493 78.287,25.493 L78.339,25.493 L78.339,25.544 C78.329,25.715 78.326,25.918 78.326,26.137 C78.326,26.53 78.339,26.964 78.361,27.289 L78.361,27.33 L78.324,27.342 L77.922,27.447 L77.92,27.387 C77.852,26.645 77.754,26.105 76.574,26.096 L75.031,26.096 L75.031,28.992 L76.344,28.992 C77.005,28.988 77.12,28.649 77.199,28.032 L77.203,27.987 L77.643,27.987 L77.643,28.038 C77.619,28.485 77.605,28.929 77.605,29.377 C77.605,29.809 77.619,30.244 77.643,30.681 L77.643,30.72 L77.602,30.73 L77.203,30.808 L77.199,30.756 C77.12,30.057 77.116,29.675 76.355,29.665 L75.031,29.663 L75.031,32.283 C75.033,32.979 75.631,32.975 76.378,32.979 C77.758,32.971 78.309,32.903 78.653,31.618 L78.664,31.571 L78.713,31.581 L79.081,31.677 L79.07,31.723 C78.921,32.328 78.786,32.934 78.682,33.539 L78.674,33.58 L78.633,33.58 L78.633,33.58 Z" id="Fill-18" fill="#FFFFFF"></path>
            <path d="M82.034,29.41 L82.592,29.41 C83.739,29.41 84.355,28.976 84.355,27.625 C84.355,26.608 83.703,25.953 82.683,25.953 C82.338,25.953 82.192,25.99 82.034,26 L82.034,29.41 Z M80.569,26.755 C80.569,25.918 80.111,25.887 79.755,25.887 L79.546,25.887 L79.546,25.54 C79.913,25.54 80.623,25.587 81.324,25.587 C82.007,25.587 82.558,25.54 83.167,25.54 C84.606,25.54 85.888,25.929 85.888,27.556 C85.888,28.587 85.203,29.215 84.299,29.573 L86.257,32.5 C86.577,32.985 86.803,33.12 87.366,33.186 L87.366,33.531 C86.989,33.531 86.622,33.486 86.245,33.486 C85.888,33.486 85.523,33.531 85.168,33.531 C84.287,32.377 83.531,31.139 82.787,29.821 L82.034,29.821 L82.034,32.271 C82.034,33.155 82.445,33.186 82.97,33.186 L83.179,33.186 L83.179,33.531 C82.523,33.531 81.86,33.486 81.207,33.486 C80.659,33.486 80.12,33.531 79.546,33.531 L79.546,33.186 L79.755,33.186 C80.176,33.186 80.569,32.995 80.569,32.57 L80.569,26.755 L80.569,26.755 Z" id="Fill-19" fill="#FFFFFF"></path>
            <path d="M82.592,29.361 C83.725,29.349 84.297,28.957 84.307,27.627 C84.301,26.628 83.679,26.008 82.683,26.002 C82.373,26.002 82.229,26.029 82.082,26.045 L82.082,29.361 L82.592,29.361 Z M82.032,29.459 L81.982,29.459 L81.982,25.953 L82.026,25.949 C82.182,25.935 82.336,25.906 82.683,25.906 C83.725,25.906 84.404,26.583 84.406,27.627 C84.402,28.992 83.746,29.459 82.592,29.459 L82.032,29.459 Z M82.032,29.772 L82.814,29.772 L82.828,29.798 C83.573,31.114 84.326,32.349 85.168,33.482 C85.519,33.482 85.886,33.435 86.242,33.435 C86.607,33.435 86.961,33.474 87.316,33.48 L87.316,33.229 C86.779,33.165 86.528,33.003 86.216,32.529 L84.222,29.548 L84.281,29.524 C85.176,29.172 85.838,28.561 85.84,27.554 C85.838,25.969 84.604,25.597 83.167,25.592 C82.562,25.592 82.01,25.636 81.324,25.636 C80.649,25.636 79.971,25.594 79.597,25.592 L79.597,25.836 L79.755,25.836 C80.111,25.836 80.615,25.894 80.615,26.755 L80.615,32.57 C80.615,33.03 80.186,33.239 79.755,33.239 L79.597,33.239 L79.597,33.48 C80.148,33.478 80.668,33.435 81.205,33.435 C81.847,33.435 82.492,33.478 83.126,33.48 L83.126,33.239 L82.97,33.239 C82.449,33.239 81.982,33.175 81.982,32.271 L81.982,29.772 L82.032,29.772 Z M87.366,33.58 C86.983,33.58 86.619,33.535 86.242,33.535 C85.894,33.535 85.527,33.58 85.127,33.562 C84.251,32.41 83.498,31.18 82.758,29.872 L82.082,29.872 L82.082,32.271 C82.094,33.134 82.441,33.126 82.97,33.139 L83.227,33.139 L83.227,33.58 L83.175,33.58 C82.519,33.58 81.854,33.535 81.205,33.535 C80.659,33.535 80.123,33.58 79.546,33.58 L79.499,33.58 L79.499,33.139 L79.755,33.139 C80.166,33.136 80.512,32.956 80.516,32.57 L80.516,26.755 C80.508,25.943 80.111,25.945 79.755,25.933 L79.499,25.933 L79.499,25.493 L79.546,25.493 C79.919,25.493 80.625,25.538 81.324,25.538 C82.005,25.538 82.556,25.493 83.167,25.493 C84.608,25.493 85.937,25.894 85.941,27.554 C85.941,28.589 85.256,29.234 84.374,29.593 L86.297,32.472 C86.617,32.948 86.815,33.067 87.371,33.139 L87.413,33.143 L87.413,33.58 L87.366,33.58 L87.366,33.58 Z" id="Fill-20" fill="#FFFFFF"></path>
            <path d="M95.136,31.276 L95.158,31.253 L95.158,26.962 C95.158,26.023 94.506,25.887 94.164,25.887 L93.912,25.887 L93.912,25.54 C94.452,25.54 94.974,25.587 95.515,25.587 C95.985,25.587 96.453,25.54 96.924,25.54 L96.924,25.887 L96.753,25.887 C96.272,25.887 95.733,25.976 95.733,27.338 L95.733,32.549 C95.733,32.948 95.743,33.348 95.799,33.703 L95.367,33.703 L89.471,27.134 L89.471,31.847 C89.471,32.846 89.666,33.186 90.548,33.186 L90.744,33.186 L90.744,33.531 C90.249,33.531 89.756,33.486 89.265,33.486 C88.749,33.486 88.223,33.531 87.709,33.531 L87.709,33.186 L87.867,33.186 C88.659,33.186 88.898,32.651 88.898,31.735 L88.898,26.915 C88.898,26.273 88.371,25.887 87.858,25.887 L87.709,25.887 L87.709,25.54 C88.142,25.54 88.592,25.587 89.025,25.587 C89.368,25.587 89.699,25.54 90.043,25.54 L95.136,31.276" id="Fill-21" fill="#FFFFFF"></path>
            <path d="M95.109,31.253 L95.109,31.249 L95.102,31.241 L95.109,31.253 Z M95.136,31.276 L95.173,31.243 L95.136,31.276 Z M95.367,33.652 L95.742,33.652 C95.694,33.311 95.683,32.927 95.683,32.549 L95.683,27.338 C95.683,25.965 96.262,25.838 96.753,25.836 L96.872,25.836 L96.872,25.592 C96.422,25.594 95.969,25.636 95.515,25.636 C94.99,25.636 94.478,25.594 93.962,25.592 L93.962,25.836 L94.164,25.836 C94.516,25.838 95.21,25.992 95.21,26.962 L95.195,31.288 L95.173,31.309 L95.136,31.348 L90.043,25.592 C89.703,25.592 89.37,25.636 89.025,25.636 C88.601,25.636 88.172,25.594 87.757,25.592 L87.757,25.836 L87.858,25.836 C88.395,25.838 88.947,26.244 88.947,26.915 L88.947,31.733 C88.947,32.651 88.688,33.235 87.867,33.239 L87.757,33.239 L87.757,33.48 C88.252,33.476 88.762,33.435 89.265,33.435 C89.743,33.435 90.219,33.476 90.693,33.48 L90.693,33.239 L90.548,33.239 C89.647,33.239 89.421,32.846 89.419,31.847 L89.419,27.005 L95.367,33.652 Z M95.799,33.754 L95.329,33.736 L89.52,27.262 L89.52,31.847 C89.535,32.846 89.685,33.128 90.548,33.139 L90.791,33.139 L90.791,33.58 L90.742,33.58 C90.245,33.58 89.754,33.533 89.265,33.533 C88.752,33.533 88.223,33.58 87.709,33.58 L87.656,33.58 L87.656,33.139 L87.867,33.139 C88.622,33.136 88.839,32.647 88.847,31.733 L88.847,26.915 C88.845,26.304 88.348,25.935 87.858,25.933 L87.656,25.933 L87.656,25.493 L87.709,25.493 C88.144,25.493 88.594,25.538 89.025,25.538 C89.363,25.538 89.693,25.493 90.077,25.507 L95.109,31.171 L95.109,26.962 C95.108,26.051 94.496,25.939 94.164,25.933 L93.862,25.933 L93.862,25.493 L93.912,25.493 C94.454,25.493 94.98,25.538 95.515,25.538 C95.981,25.538 96.452,25.493 96.922,25.493 L96.972,25.493 L96.972,25.933 L96.753,25.933 C96.282,25.945 95.793,25.99 95.782,27.338 L95.782,32.549 C95.782,32.946 95.791,33.343 95.849,33.695 L95.855,33.754 L95.799,33.754 L95.799,33.754 Z" id="Fill-22" fill="#FFFFFF"></path>
            <path d="M100.436,26.823 L100.413,26.823 L99.348,30.063 L101.488,30.063 L100.436,26.823 Z M98.767,31.894 C98.651,32.283 98.511,32.583 98.511,32.786 C98.511,33.132 98.995,33.186 99.371,33.186 L99.498,33.186 L99.498,33.531 C99.037,33.508 98.57,33.486 98.111,33.486 C97.699,33.486 97.287,33.508 96.876,33.531 L96.876,33.186 L96.944,33.186 C97.39,33.186 97.77,32.923 97.938,32.443 L99.771,27.191 C99.919,26.766 100.128,26.195 100.195,25.769 C100.561,25.644 101.02,25.417 101.237,25.278 C101.272,25.266 101.29,25.257 101.328,25.257 C101.361,25.257 101.384,25.257 101.409,25.29 C101.443,25.382 101.476,25.485 101.513,25.576 L103.618,31.563 C103.754,31.963 103.892,32.388 104.04,32.731 C104.179,33.051 104.419,33.186 104.797,33.186 L104.865,33.186 L104.865,33.531 C104.35,33.508 103.834,33.486 103.287,33.486 C102.727,33.486 102.153,33.508 101.571,33.531 L101.571,33.186 L101.697,33.186 C101.958,33.186 102.405,33.143 102.405,32.856 C102.405,32.706 102.303,32.398 102.173,32.031 L101.729,30.703 L99.129,30.703 L98.767,31.894 L98.767,31.894 Z" id="Fill-23" fill="#FFFFFF"></path>
            <path d="M100.386,26.839 L100.413,26.831 L100.386,26.839 Z M99.415,30.014 L101.418,30.014 L100.423,26.946 L99.415,30.014 Z M99.278,30.114 L100.373,26.774 L100.436,26.774 L100.436,26.823 L100.424,26.827 L100.436,26.823 L100.436,26.774 L100.47,26.774 L101.557,30.114 L99.278,30.114 Z M101.619,33.476 C102.183,33.459 102.741,33.435 103.287,33.435 C103.819,33.435 104.316,33.459 104.815,33.476 L104.815,33.239 L104.797,33.239 C104.406,33.243 104.137,33.087 103.995,32.751 C103.846,32.404 103.706,31.978 103.572,31.579 L101.464,25.592 C101.429,25.501 101.395,25.397 101.367,25.315 C101.355,25.304 101.359,25.304 101.349,25.304 L101.328,25.304 C101.304,25.304 101.29,25.311 101.262,25.319 C101.041,25.462 100.58,25.687 100.242,25.777 C100.172,26.213 99.966,26.782 99.816,27.205 L97.987,32.461 C97.811,32.958 97.41,33.239 96.944,33.239 L96.926,33.239 L96.926,33.476 C97.317,33.459 97.714,33.435 98.111,33.435 C98.554,33.435 99.006,33.459 99.444,33.476 L99.444,33.239 L99.371,33.239 C98.996,33.235 98.477,33.194 98.463,32.788 C98.463,32.56 98.603,32.265 98.716,31.881 L98.767,31.894 L98.716,31.879 L99.093,30.656 L101.761,30.656 L102.219,32.015 C102.349,32.385 102.454,32.688 102.454,32.856 C102.436,33.208 101.955,33.233 101.697,33.239 L101.619,33.239 L101.619,33.476 Z M104.861,33.58 C104.348,33.558 103.834,33.533 103.287,33.533 C102.727,33.533 102.157,33.558 101.571,33.58 L101.519,33.584 L101.519,33.136 L101.697,33.136 C101.959,33.136 102.352,33.077 102.352,32.856 C102.354,32.725 102.254,32.412 102.127,32.049 L101.693,30.754 L99.166,30.754 L98.81,31.908 C98.693,32.3 98.558,32.603 98.558,32.788 C98.562,33.067 98.991,33.136 99.371,33.136 L99.546,33.136 L99.546,33.584 L99.495,33.58 C99.036,33.558 98.568,33.533 98.111,33.533 C97.701,33.533 97.287,33.558 96.878,33.58 L96.828,33.584 L96.828,33.136 L96.944,33.136 C97.37,33.136 97.724,32.891 97.889,32.428 L99.723,27.174 C99.873,26.749 100.08,26.179 100.178,25.724 C100.536,25.599 100.997,25.37 101.218,25.231 C101.25,25.22 101.281,25.204 101.328,25.204 C101.355,25.202 101.418,25.212 101.453,25.272 C101.488,25.366 101.523,25.468 101.557,25.558 L103.666,31.548 C103.801,31.947 103.938,32.371 104.086,32.708 C104.219,33.014 104.429,33.136 104.797,33.136 L104.915,33.136 L104.915,33.584 L104.861,33.58 L104.861,33.58 Z" id="Fill-24" fill="#FFFFFF"></path>
            <path d="M105.37,26.113 C104.509,26.113 104.477,26.32 104.305,27.154 L103.959,27.154 C104.006,26.835 104.065,26.514 104.098,26.181 C104.145,25.861 104.167,25.54 104.167,25.21 L104.441,25.21 C104.533,25.553 104.82,25.54 105.127,25.54 L111.035,25.54 C111.343,25.54 111.627,25.53 111.651,25.186 L111.926,25.233 C111.882,25.54 111.838,25.849 111.801,26.16 C111.774,26.468 111.774,26.778 111.774,27.087 L111.433,27.215 C111.414,26.79 111.354,26.113 110.587,26.113 L108.711,26.113 L108.711,32.203 C108.711,33.087 109.112,33.186 109.662,33.186 L109.876,33.186 L109.876,33.531 C109.432,33.531 108.631,33.486 108.013,33.486 C107.327,33.486 106.523,33.531 106.076,33.531 L106.076,33.186 L106.294,33.186 C106.926,33.186 107.247,33.132 107.247,32.228 L107.247,26.113 L105.37,26.113" id="Fill-25" fill="#FFFFFF"></path>
            <path d="M109.876,33.58 C109.43,33.58 108.629,33.535 108.013,33.535 C107.329,33.535 106.529,33.58 106.076,33.58 L106.028,33.58 L106.028,33.139 L106.294,33.139 C106.926,33.124 107.178,33.116 107.194,32.228 L107.194,26.162 L105.37,26.162 L105.37,26.064 L107.293,26.064 L107.293,32.228 C107.293,33.145 106.924,33.235 106.294,33.239 L106.126,33.239 L106.126,33.482 C106.58,33.476 107.348,33.435 108.013,33.435 C108.61,33.435 109.376,33.476 109.829,33.482 L109.827,33.239 L109.66,33.239 C109.108,33.235 108.664,33.104 108.662,32.203 L108.662,26.064 L110.587,26.064 C111.358,26.066 111.455,26.718 111.479,27.143 L111.728,27.052 C111.728,26.755 111.728,26.454 111.752,26.154 C111.784,25.859 111.829,25.566 111.869,25.276 L111.698,25.245 C111.643,25.576 111.322,25.596 111.035,25.592 L105.127,25.592 L105.07,25.592 C104.799,25.594 104.508,25.579 104.404,25.257 L104.217,25.257 C104.213,25.576 104.193,25.883 104.147,26.189 C104.116,26.505 104.059,26.805 104.017,27.106 L104.264,27.106 C104.414,26.31 104.511,26.049 105.37,26.064 L105.37,26.162 C104.519,26.178 104.539,26.32 104.352,27.166 L104.344,27.205 L103.901,27.205 L103.909,27.147 C103.955,26.827 104.013,26.507 104.047,26.178 C104.094,25.855 104.116,25.538 104.116,25.21 L104.116,25.159 L104.477,25.159 L104.487,25.196 C104.568,25.485 104.779,25.487 105.07,25.493 L105.127,25.493 L111.035,25.493 C111.351,25.487 111.583,25.481 111.602,25.182 L111.604,25.13 L111.659,25.139 L111.985,25.19 L111.975,25.239 C111.926,25.548 111.884,25.855 111.85,26.162 C111.829,26.468 111.829,26.778 111.829,27.087 L111.829,27.122 L111.793,27.135 L111.387,27.283 L111.387,27.215 C111.358,26.786 111.312,26.162 110.587,26.162 L108.76,26.162 L108.76,32.203 C108.772,33.067 109.114,33.128 109.66,33.139 L109.926,33.139 L109.926,33.58 L109.876,33.58" id="Fill-26" fill="#FFFFFF"></path>
            <path d="M112.348,33.186 L112.508,33.186 C112.922,33.186 113.356,33.132 113.356,32.535 L113.356,26.538 C113.356,25.941 112.922,25.887 112.508,25.887 L112.348,25.887 L112.348,25.54 C112.795,25.54 113.481,25.587 114.041,25.587 C114.614,25.587 115.3,25.54 115.841,25.54 L115.841,25.887 L115.681,25.887 C115.266,25.887 114.83,25.941 114.83,26.538 L114.83,32.535 C114.83,33.132 115.266,33.186 115.681,33.186 L115.841,33.186 L115.841,33.531 C115.289,33.531 114.604,33.486 114.032,33.486 C113.469,33.486 112.795,33.531 112.348,33.531 L112.348,33.186" id="Fill-27" fill="#FFFFFF"></path>
            <path d="M115.789,33.48 L115.789,33.239 L115.681,33.239 C115.27,33.239 114.784,33.167 114.784,32.535 L114.784,26.538 C114.784,25.906 115.27,25.836 115.681,25.836 L115.789,25.836 L115.789,25.592 C115.26,25.594 114.6,25.636 114.041,25.636 C113.498,25.636 112.841,25.594 112.398,25.592 L112.398,25.836 L112.508,25.836 C112.914,25.836 113.405,25.906 113.405,26.538 L113.405,32.535 C113.405,33.167 112.914,33.239 112.508,33.239 L112.398,33.239 L112.398,33.48 C112.841,33.474 113.487,33.435 114.032,33.435 C114.586,33.435 115.25,33.476 115.789,33.48 Z M115.841,33.58 C115.288,33.58 114.602,33.533 114.032,33.533 C113.471,33.533 112.795,33.58 112.348,33.58 L112.3,33.58 L112.3,33.139 L112.508,33.139 C112.922,33.132 113.301,33.095 113.303,32.535 L113.303,26.538 C113.301,25.98 112.922,25.941 112.508,25.933 L112.3,25.933 L112.3,25.493 L112.348,25.493 C112.795,25.493 113.483,25.538 114.041,25.538 C114.614,25.538 115.298,25.493 115.841,25.493 L115.887,25.493 L115.887,25.933 L115.681,25.933 C115.263,25.941 114.885,25.98 114.881,26.538 L114.881,32.535 C114.885,33.095 115.263,33.132 115.681,33.139 L115.887,33.139 L115.887,33.58 L115.841,33.58 L115.841,33.58 Z" id="Fill-28" fill="#FFFFFF"></path>
            <path d="M120.578,33.2 C122.801,33.2 123.185,31.241 123.185,29.573 C123.185,27.9 122.284,25.875 120.383,25.875 C118.38,25.875 117.786,27.66 117.786,29.191 C117.786,31.241 118.724,33.2 120.578,33.2 Z M120.406,25.37 C122.845,25.37 124.79,26.882 124.79,29.32 C124.79,31.953 122.903,33.703 120.464,33.703 C118.035,33.703 116.184,32.056 116.184,29.593 C116.184,27.215 118.026,25.37 120.406,25.37 L120.406,25.37 Z" id="Fill-29" fill="#FFFFFF"></path>
            <path d="M117.734,29.191 C117.738,27.652 118.342,25.822 120.383,25.822 C122.329,25.826 123.234,27.89 123.236,29.573 C123.234,31.241 122.841,33.247 120.578,33.247 L120.578,33.151 C122.756,33.149 123.131,31.241 123.137,29.573 C123.137,27.913 122.244,25.926 120.383,25.924 C118.419,25.926 117.838,27.668 117.834,29.191 C117.836,31.231 118.767,33.145 120.578,33.151 L120.578,33.247 C118.678,33.245 117.738,31.253 117.734,29.191 Z M116.131,29.593 C116.137,27.185 118,25.323 120.406,25.319 L120.406,25.421 C118.05,25.421 116.229,27.238 116.229,29.593 C116.233,32.027 118.06,33.65 120.464,33.652 C122.877,33.65 124.738,31.926 124.744,29.318 C124.742,26.911 122.826,25.423 120.406,25.421 L120.406,25.319 C122.864,25.323 124.834,26.85 124.838,29.318 C124.836,31.978 122.926,33.748 120.464,33.754 C118.016,33.748 116.137,32.08 116.131,29.593 L116.131,29.593 Z" id="Fill-30" fill="#FFFFFF"></path>
            <path d="M132.505,31.276 L132.528,31.253 L132.528,26.962 C132.528,26.023 131.875,25.887 131.529,25.887 L131.283,25.887 L131.283,25.54 C131.817,25.54 132.346,25.587 132.882,25.587 C133.354,25.587 133.823,25.54 134.29,25.54 L134.29,25.887 L134.119,25.887 C133.637,25.887 133.099,25.976 133.099,27.338 L133.099,32.549 C133.099,32.948 133.113,33.348 133.168,33.703 L132.732,33.703 L126.838,27.134 L126.838,31.847 C126.838,32.846 127.032,33.186 127.914,33.186 L128.109,33.186 L128.109,33.531 C127.617,33.531 127.125,33.486 126.632,33.486 C126.118,33.486 125.589,33.531 125.074,33.531 L125.074,33.186 L125.236,33.186 C126.028,33.186 126.263,32.651 126.263,31.735 L126.263,26.915 C126.263,26.273 125.74,25.887 125.222,25.887 L125.074,25.887 L125.074,25.54 C125.51,25.54 125.955,25.587 126.391,25.587 C126.734,25.587 127.065,25.54 127.409,25.54 L132.505,31.276" id="Fill-31" fill="#FFFFFF"></path>
            <path d="M132.476,31.253 L132.476,31.249 L132.466,31.241 L132.476,31.253 Z M132.505,31.276 L132.541,31.243 L132.505,31.276 Z M132.732,33.652 L133.111,33.652 C133.06,33.309 133.05,32.927 133.05,32.549 L133.05,27.338 C133.05,25.963 133.628,25.838 134.119,25.836 L134.243,25.836 L134.243,25.592 C133.788,25.594 133.336,25.636 132.878,25.636 C132.362,25.636 131.848,25.594 131.33,25.592 L131.33,25.836 L131.529,25.836 C131.885,25.838 132.576,25.994 132.576,26.962 L132.562,31.288 L132.541,31.309 L132.505,31.348 L127.409,25.592 C127.071,25.592 126.738,25.636 126.391,25.636 C125.969,25.636 125.538,25.594 125.123,25.592 L125.123,25.836 L125.222,25.836 C125.761,25.838 126.314,26.244 126.314,26.915 L126.314,31.735 C126.314,32.651 126.06,33.235 125.236,33.239 L125.123,33.239 L125.123,33.48 C125.621,33.476 126.129,33.435 126.632,33.435 C127.11,33.435 127.586,33.476 128.059,33.48 L128.059,33.239 L127.911,33.239 C127.012,33.239 126.789,32.846 126.789,31.847 L126.789,27.005 L132.732,33.652 Z M133.168,33.754 L132.694,33.736 L126.886,27.262 L126.886,31.847 C126.9,32.846 127.051,33.126 127.911,33.136 L128.16,33.136 L128.16,33.58 L128.109,33.58 C127.615,33.58 127.122,33.535 126.632,33.535 C126.12,33.535 125.593,33.58 125.074,33.58 L125.027,33.58 L125.027,33.136 L125.236,33.136 C125.991,33.134 126.207,32.647 126.213,31.735 L126.213,26.915 C126.213,26.304 125.715,25.935 125.222,25.933 L125.027,25.933 L125.027,25.493 L125.074,25.493 C125.512,25.493 125.959,25.538 126.391,25.538 C126.73,25.538 127.059,25.493 127.449,25.511 L132.476,31.171 L132.476,26.962 C132.474,26.051 131.866,25.941 131.529,25.933 L131.23,25.933 L131.23,25.493 L131.281,25.493 C131.819,25.493 132.35,25.538 132.878,25.538 C133.35,25.538 133.815,25.493 134.29,25.493 L134.339,25.493 L134.339,25.933 L134.119,25.933 C133.649,25.947 133.161,25.99 133.151,27.338 L133.151,32.549 C133.151,32.946 133.161,33.346 133.213,33.695 L133.224,33.754 L133.168,33.754 L133.168,33.754 Z" id="Fill-32" fill="#FFFFFF"></path>
            <path d="M137.802,26.823 L137.78,26.823 L136.714,30.063 L138.858,30.063 L137.802,26.823 Z M136.13,31.894 C136.019,32.283 135.88,32.583 135.88,32.786 C135.88,33.132 136.364,33.186 136.737,33.186 L136.865,33.186 L136.865,33.531 C136.406,33.508 135.938,33.486 135.48,33.486 C135.063,33.486 134.654,33.508 134.245,33.531 L134.245,33.186 L134.308,33.186 C134.756,33.186 135.137,32.923 135.306,32.443 L137.14,27.191 C137.288,26.766 137.494,26.195 137.562,25.769 C137.927,25.644 138.386,25.417 138.604,25.278 C138.638,25.266 138.663,25.257 138.697,25.257 C138.728,25.257 138.749,25.257 138.775,25.29 C138.81,25.382 138.842,25.485 138.88,25.576 L140.985,31.563 C141.12,31.963 141.26,32.388 141.409,32.731 C141.545,33.051 141.788,33.186 142.165,33.186 L142.233,33.186 L142.233,33.531 C141.719,33.508 141.202,33.486 140.654,33.486 C140.093,33.486 139.518,33.508 138.935,33.531 L138.935,33.186 L139.062,33.186 C139.325,33.186 139.773,33.143 139.773,32.856 C139.773,32.706 139.668,32.398 139.541,32.031 L139.097,30.703 L136.5,30.703 L136.13,31.894 L136.13,31.894 Z" id="Fill-33" fill="#FFFFFF"></path>
            <path d="M137.759,26.839 L137.78,26.831 L137.759,26.839 Z M136.784,30.012 L138.787,30.012 L137.789,26.948 L136.784,30.012 Z M136.645,30.11 L137.747,26.774 L137.802,26.774 L137.802,26.823 L137.791,26.827 L137.802,26.823 L137.802,26.774 L137.839,26.774 L138.921,30.11 L136.645,30.11 Z M138.986,33.478 C139.549,33.459 140.109,33.435 140.654,33.435 C141.185,33.435 141.684,33.459 142.181,33.476 L142.181,33.239 L142.163,33.239 C141.776,33.239 141.504,33.087 141.362,32.751 C141.209,32.404 141.073,31.978 140.937,31.579 L138.833,25.592 C138.798,25.501 138.761,25.397 138.734,25.319 C138.724,25.304 138.724,25.304 138.715,25.304 L138.697,25.304 C138.671,25.304 138.66,25.311 138.629,25.319 C138.408,25.46 137.951,25.689 137.608,25.777 C137.54,26.213 137.33,26.782 137.185,27.205 L135.352,32.461 C135.177,32.958 134.781,33.239 134.308,33.239 L134.29,33.239 L134.29,33.476 C134.686,33.459 135.08,33.435 135.48,33.435 C135.922,33.435 136.372,33.459 136.817,33.476 L136.817,33.239 L136.737,33.239 C136.366,33.235 135.843,33.194 135.83,32.786 C135.831,32.56 135.974,32.267 136.086,31.881 L136.13,31.894 L136.086,31.879 L136.461,30.656 L139.132,30.656 L139.588,32.015 C139.717,32.385 139.819,32.688 139.819,32.856 C139.802,33.208 139.323,33.233 139.06,33.239 L138.986,33.239 L138.986,33.478 Z M142.23,33.58 C141.715,33.56 141.198,33.535 140.654,33.535 C140.095,33.535 139.52,33.56 138.937,33.58 L138.886,33.584 L138.886,33.139 L139.06,33.139 C139.327,33.139 139.721,33.077 139.723,32.856 C139.725,32.725 139.622,32.414 139.492,32.049 L139.058,30.754 L136.531,30.754 L136.179,31.908 C136.065,32.303 135.926,32.603 135.93,32.786 C135.93,33.067 136.358,33.139 136.737,33.139 L136.913,33.139 L136.913,33.584 L136.861,33.58 C136.404,33.56 135.934,33.535 135.48,33.535 C135.067,33.535 134.658,33.56 134.245,33.58 L134.195,33.584 L134.195,33.139 L134.308,33.139 C134.735,33.136 135.094,32.889 135.26,32.428 L137.091,27.174 C137.238,26.749 137.445,26.179 137.544,25.724 C137.906,25.599 138.366,25.37 138.586,25.231 C138.616,25.22 138.651,25.206 138.697,25.206 C138.724,25.202 138.785,25.212 138.822,25.274 C138.854,25.364 138.888,25.468 138.925,25.558 L141.031,31.548 C141.167,31.947 141.306,32.371 141.455,32.71 C141.59,33.014 141.796,33.136 142.163,33.139 L142.281,33.139 L142.281,33.584 L142.23,33.58 L142.23,33.58 Z" id="Fill-34" fill="#FFFFFF"></path>
            <path d="M145.119,32.41 C145.119,32.868 145.437,33.005 145.802,33.051 C146.273,33.087 146.787,33.087 147.316,33.028 C147.794,32.973 148.208,32.696 148.413,32.41 C148.595,32.156 148.697,31.838 148.769,31.585 L149.1,31.585 C148.973,32.238 148.813,32.88 148.675,33.531 C147.668,33.531 146.66,33.486 145.657,33.486 C144.647,33.486 143.639,33.531 142.631,33.531 L142.631,33.186 L142.789,33.186 C143.205,33.186 143.651,33.132 143.651,32.42 L143.651,26.538 C143.651,25.941 143.205,25.887 142.789,25.887 L142.631,25.887 L142.631,25.54 C143.239,25.54 143.835,25.587 144.44,25.587 C145.024,25.587 145.597,25.54 146.182,25.54 L146.182,25.887 L145.893,25.887 C145.46,25.887 145.119,25.898 145.119,26.505 L145.119,32.41" id="Fill-35" fill="#FFFFFF"></path>
            <path d="M148.636,33.48 C148.769,32.86 148.918,32.252 149.038,31.634 L148.804,31.634 C148.735,31.885 148.632,32.191 148.451,32.439 C148.238,32.737 147.814,33.016 147.316,33.077 C147.016,33.11 146.719,33.124 146.44,33.124 C146.219,33.124 146,33.114 145.794,33.1 C145.425,33.057 145.062,32.899 145.066,32.41 L145.066,26.505 C145.066,25.867 145.467,25.836 145.893,25.836 L146.131,25.836 L146.131,25.592 C145.568,25.594 145.008,25.636 144.44,25.636 C143.845,25.636 143.266,25.594 142.68,25.592 L142.68,25.836 L142.789,25.836 C143.2,25.836 143.699,25.906 143.699,26.536 L143.699,32.42 C143.699,33.161 143.202,33.239 142.789,33.239 L142.68,33.239 L142.68,33.48 C143.667,33.478 144.661,33.435 145.657,33.435 C146.65,33.435 147.642,33.478 148.636,33.48 Z M148.675,33.58 C147.666,33.58 146.66,33.535 145.657,33.535 C144.647,33.535 143.639,33.58 142.629,33.58 L142.583,33.58 L142.583,33.139 L142.789,33.139 C143.205,33.13 143.599,33.1 143.603,32.42 L143.603,26.536 C143.599,25.98 143.209,25.941 142.789,25.933 L142.583,25.933 L142.583,25.493 L142.629,25.493 C143.241,25.493 143.835,25.538 144.44,25.538 C145.022,25.538 145.595,25.493 146.182,25.493 L146.227,25.493 L146.227,25.933 L145.893,25.933 C145.451,25.945 145.172,25.926 145.163,26.505 L145.163,32.41 C145.168,32.837 145.447,32.95 145.806,33.003 C146.006,33.016 146.221,33.024 146.44,33.024 C146.719,33.024 147.01,33.011 147.309,32.979 C147.774,32.923 148.173,32.655 148.372,32.383 C148.549,32.137 148.65,31.822 148.717,31.573 L148.729,31.534 L149.161,31.534 L149.149,31.596 C149.021,32.25 148.863,32.889 148.725,33.543 L148.713,33.58 L148.675,33.58 L148.675,33.58 Z" id="Fill-36" fill="#FFFFFF"></path>
            <g id="Group-40">
                <mask id="mask-2" fill="white">
                    <use xlink:href="#path-1"></use>
                </mask>
                <g id="Clip-38"></g>
                <path d="M148.769,26.425 L148.909,26.425 C149.065,26.425 149.137,26.308 149.137,26.119 C149.137,25.926 149.023,25.859 148.901,25.859 L148.769,25.859 L148.769,26.425 Z M148.361,27.061 L148.361,27.001 C148.507,26.981 148.537,26.987 148.537,26.893 L148.537,26.002 C148.537,25.875 148.523,25.832 148.365,25.84 L148.365,25.777 L148.983,25.777 C149.193,25.777 149.389,25.881 149.389,26.097 C149.389,26.279 149.272,26.409 149.104,26.462 L149.301,26.739 C149.395,26.862 149.499,26.981 149.569,27.022 L149.569,27.061 L149.333,27.061 C149.221,27.061 149.123,26.823 148.901,26.507 L148.769,26.507 L148.769,26.905 C148.769,26.987 148.796,26.981 148.942,27.001 L148.942,27.061 L148.361,27.061 Z M148.959,27.402 C149.499,27.402 149.913,26.944 149.913,26.425 C149.913,25.906 149.507,25.442 148.959,25.442 C148.416,25.442 148.004,25.906 148.004,26.425 C148.004,26.944 148.416,27.402 148.959,27.402 Z M148.959,25.218 C149.649,25.218 150.165,25.748 150.165,26.425 C150.165,27.101 149.649,27.627 148.959,27.627 C148.272,27.627 147.754,27.101 147.754,26.425 C147.754,25.748 148.272,25.218 148.959,25.218 L148.959,25.218 Z" id="Fill-37" fill="#FFFFFF" mask="url(#mask-2)"></path>
                <path d="M31.825,19.965 C31.817,15.02 28.725,10.803 24.371,9.133 L24.371,30.797 C28.725,29.125 31.817,24.911 31.825,19.965 Z M16.062,30.793 L16.062,9.135 C11.71,10.811 8.624,15.022 8.613,19.965 C8.624,24.907 11.71,29.119 16.062,30.793 Z M20.218,1.654 C10.105,1.658 1.913,9.853 1.911,19.965 C1.913,30.077 10.105,38.269 20.218,38.271 C30.331,38.269 38.526,30.077 38.529,19.965 C38.526,9.853 30.331,1.658 20.218,1.654 Z M20.174,40 C9.107,40.053 0,31.087 0,20.174 C0,8.247 9.107,-0.002 20.174,1.04228018e-15 L25.359,1.04228018e-15 C36.294,-0.002 46.275,8.243 46.275,20.174 C46.275,31.083 36.294,40 25.359,40 L20.174,40 L20.174,40 Z" id="Fill-39" fill="#FFFFFF" mask="url(#mask-2)"></path>
            </g>
        </g>
    </g>
</svg>